<svg width="656" height="650" viewBox="0 0 656 650" fill="none" xmlns="http://www.w3.org/2000/svg">
<path d="M565.667 309.713C565.667 167.408 450.231 52.0464 307.834 52.0464C165.436 52.0464 50 167.408 50 309.713C50 452.018 165.436 567.379 307.834 567.379C450.231 567.379 565.667 452.018 565.667 309.713Z" fill="#7B4AE2" fill-opacity="0.2"/>
<g filter="url(#filter0_d_21_4106)">
<circle cx="570.143" cy="331.11" r="35.8102" fill="#090E16"/>
</g>
<g clip-path="url(#clip0_21_4106)">
<path fill-rule="evenodd" clip-rule="evenodd" d="M585.251 313.205H555.036C553.491 313.205 552.238 314.458 552.238 316.003V346.218C552.238 347.763 553.491 349.015 555.036 349.015H585.251C586.796 349.015 588.049 347.763 588.049 346.218V316.003C588.049 314.458 586.796 313.205 585.251 313.205ZM573.293 345.112V341.248C573.994 341.836 574.755 342.277 575.577 342.57C576.399 342.864 577.229 343.011 578.066 343.011C578.558 343.011 578.987 342.967 579.353 342.878C579.72 342.79 580.026 342.667 580.272 342.51C580.517 342.353 580.701 342.168 580.821 341.955C580.942 341.741 581.003 341.51 581.003 341.26C581.003 340.922 580.906 340.621 580.713 340.355C580.519 340.089 580.256 339.844 579.921 339.618C579.587 339.393 579.19 339.176 578.731 338.967C578.272 338.757 577.776 338.544 577.245 338.327C575.891 337.763 574.882 337.075 574.218 336.262C573.553 335.449 573.221 334.467 573.221 333.316C573.221 332.415 573.402 331.64 573.765 330.992C574.127 330.344 574.621 329.811 575.245 329.392C575.869 328.974 576.592 328.666 577.414 328.469C578.236 328.271 579.106 328.173 580.024 328.173C580.926 328.173 581.726 328.227 582.423 328.336C583.119 328.444 583.762 328.611 584.35 328.837V332.447C584.06 332.246 583.744 332.068 583.401 331.916C583.059 331.763 582.706 331.636 582.344 331.535C581.981 331.434 581.621 331.36 581.262 331.312C580.904 331.264 580.564 331.239 580.241 331.239C579.798 331.239 579.396 331.282 579.033 331.366C578.671 331.451 578.364 331.569 578.115 331.722C577.865 331.875 577.672 332.058 577.535 332.272C577.398 332.485 577.329 332.724 577.329 332.99C577.329 333.28 577.406 333.539 577.559 333.769C577.712 333.998 577.929 334.216 578.211 334.421C578.493 334.626 578.836 334.827 579.238 335.024C579.641 335.222 580.096 335.425 580.604 335.634C581.297 335.924 581.919 336.232 582.471 336.558C583.023 336.884 583.496 337.252 583.891 337.663C584.285 338.073 584.587 338.542 584.797 339.069C585.006 339.596 585.111 340.21 585.111 340.91C585.111 341.876 584.928 342.687 584.561 343.343C584.195 343.999 583.697 344.53 583.069 344.937C582.441 345.343 581.71 345.635 580.876 345.812C580.042 345.989 579.162 346.078 578.236 346.078C577.285 346.078 576.381 345.997 575.523 345.836C574.665 345.675 573.922 345.434 573.293 345.112ZM571.822 331.634H566.854V345.798H562.918V331.634H557.974V328.452H571.822V331.634Z" fill="#7B4AE2" fill-opacity="0.5"/>
</g>
<g filter="url(#filter1_d_21_4106)">
<circle cx="85.8102" cy="239.794" r="35.8102" fill="#090E16"/>
</g>
<path d="M99.2074 233.496C98.7899 233.352 98.3572 233.216 97.9117 233.088C97.9849 232.789 98.0521 232.494 98.1119 232.204C99.0927 227.443 98.4514 223.608 96.2617 222.345C94.1619 221.134 90.728 222.396 87.26 225.415C86.9265 225.705 86.592 226.012 86.2577 226.334C86.035 226.121 85.8126 225.915 85.5908 225.718C81.9562 222.491 78.313 221.131 76.1254 222.397C74.0277 223.612 73.4065 227.217 74.2893 231.729C74.3746 232.165 74.4742 232.61 74.5869 233.063C74.0713 233.209 73.5735 233.365 73.0973 233.531C68.836 235.017 66.1146 237.345 66.1146 239.76C66.1146 242.255 69.036 244.757 73.4745 246.274C73.8247 246.393 74.1882 246.507 74.5627 246.614C74.4411 247.103 74.3354 247.583 74.2466 248.051C73.4048 252.484 74.0622 256.005 76.1543 257.211C78.3153 258.458 81.942 257.177 85.4735 254.09C85.7526 253.846 86.0327 253.587 86.3133 253.316C86.6771 253.666 87.0402 253.997 87.4014 254.308C90.8221 257.252 94.2006 258.441 96.2907 257.231C98.4495 255.981 99.1511 252.199 98.2403 247.598C98.1707 247.246 98.0898 246.887 97.9988 246.522C98.2535 246.447 98.5036 246.369 98.7474 246.288C103.362 244.759 106.364 242.288 106.364 239.76C106.364 237.336 103.554 234.992 99.2074 233.496ZM98.2066 244.656C97.9865 244.729 97.7607 244.799 97.5306 244.868C97.0212 243.255 96.3337 241.54 95.4924 239.769C96.2953 238.039 96.9562 236.346 97.4513 234.744C97.863 234.863 98.2626 234.989 98.6477 235.122C102.372 236.404 104.644 238.3 104.644 239.76C104.644 241.316 102.191 243.336 98.2066 244.656ZM96.5535 247.932C96.9563 249.966 97.0138 251.806 96.747 253.244C96.5073 254.536 96.0252 255.398 95.4292 255.743C94.1607 256.477 91.4482 255.522 88.5228 253.005C88.1874 252.716 87.8496 252.408 87.5108 252.082C88.6449 250.842 89.7783 249.4 90.8846 247.798C92.8303 247.626 94.6686 247.344 96.3357 246.958C96.4178 247.289 96.4907 247.614 96.5535 247.932ZM79.8364 255.616C78.5971 256.053 77.6101 256.066 77.0135 255.722C75.7439 254.99 75.2161 252.163 75.936 248.371C76.0185 247.937 76.1166 247.491 76.2298 247.035C77.8785 247.4 79.7034 247.662 81.6538 247.82C82.7675 249.387 83.9337 250.828 85.1089 252.089C84.8521 252.337 84.5963 252.573 84.342 252.795C82.7804 254.16 81.2155 255.129 79.8364 255.616ZM74.0305 244.647C72.068 243.976 70.4472 243.104 69.3362 242.153C68.338 241.298 67.8339 240.449 67.8339 239.76C67.8339 238.295 70.019 236.425 73.6632 235.155C74.1054 235.001 74.5683 234.855 75.0487 234.719C75.5523 236.357 76.213 238.07 77.0103 239.802C76.2027 241.56 75.5326 243.3 75.024 244.958C74.6816 244.859 74.3498 244.756 74.0305 244.647ZM75.9767 231.399C75.2203 227.533 75.7227 224.617 76.9868 223.886C78.3333 223.106 81.3109 224.217 84.4491 227.004C84.6497 227.182 84.8511 227.369 85.0531 227.561C83.8836 228.817 82.7281 230.247 81.6243 231.804C79.7314 231.98 77.9194 232.262 76.2534 232.639C76.1487 232.218 76.0559 231.804 75.9767 231.399ZM93.3383 235.686C92.9401 234.998 92.5312 234.327 92.1144 233.673C93.3986 233.836 94.629 234.051 95.7844 234.315C95.4375 235.427 95.0052 236.589 94.4962 237.781C94.1311 237.087 93.745 236.389 93.3383 235.686ZM86.2583 228.79C87.0514 229.649 87.8456 230.609 88.6268 231.65C87.8396 231.612 87.0427 231.593 86.2391 231.593C85.4432 231.593 84.6521 231.612 83.8697 231.648C84.6517 230.617 85.4528 229.659 86.2583 228.79ZM79.1329 235.698C78.7351 236.388 78.3561 237.083 77.9968 237.779C77.496 236.592 77.0677 235.424 76.7178 234.297C77.8662 234.04 79.0907 233.83 80.3668 233.67C79.9441 234.33 79.5318 235.006 79.1329 235.698V235.698ZM80.4035 245.973C79.0852 245.826 77.8422 245.627 76.6941 245.377C77.0496 244.229 77.4874 243.036 77.9987 241.823C78.359 242.519 78.7395 243.215 79.1397 243.906H79.1398C79.5475 244.61 79.9699 245.3 80.4035 245.973ZM86.3059 250.852C85.491 249.972 84.6781 249 83.8842 247.953C84.6549 247.984 85.4406 247.999 86.2391 247.999C87.0595 247.999 87.8705 247.981 88.6687 247.945C87.885 249.01 87.0936 249.984 86.3059 250.852ZM94.5126 241.761C95.0506 242.988 95.5041 244.174 95.8642 245.302C94.6972 245.568 93.4372 245.783 92.1097 245.942C92.5275 245.28 92.9399 244.597 93.3452 243.894C93.7552 243.183 94.1445 242.471 94.5126 241.761ZM91.8558 243.035C91.2267 244.126 90.5807 245.167 89.925 246.15C88.7306 246.236 87.4967 246.28 86.2391 246.28C84.9866 246.28 83.7682 246.241 82.595 246.165C81.9128 245.169 81.2529 244.124 80.6277 243.044H80.6278C80.0043 241.968 79.4305 240.881 78.9105 239.802C79.4303 238.719 80.0027 237.632 80.6226 236.557L80.6225 236.557C81.244 235.479 81.8982 234.44 82.5741 233.45C83.7711 233.36 84.9986 233.312 86.239 233.312H86.2391C87.4852 233.312 88.7142 233.36 89.9109 233.451C90.5764 234.434 91.2262 235.47 91.8502 236.548C92.4813 237.638 93.061 238.718 93.5853 239.777C93.0626 240.855 92.4841 241.945 91.8558 243.035ZM95.4028 223.834C96.7506 224.612 97.2748 227.746 96.4279 231.857C96.3739 232.119 96.3131 232.386 96.247 232.657C94.5772 232.272 92.7639 231.985 90.8654 231.807C89.7595 230.232 88.6134 228.8 87.4631 227.561C87.7723 227.263 88.0812 226.979 88.3888 226.712C91.3602 224.126 94.1374 223.105 95.4028 223.834ZM86.2391 236.166C88.2241 236.166 89.8332 237.775 89.8332 239.76C89.8332 241.745 88.2241 243.354 86.2391 243.354C84.2542 243.354 82.645 241.745 82.645 239.76C82.645 237.775 84.2542 236.166 86.2391 236.166Z" fill="#7B4AE2" fill-opacity="0.5"/>
<g filter="url(#filter2_d_21_4106)">
<circle cx="85.8102" cy="468.98" r="35.8102" fill="#090E16"/>
</g>
<g clip-path="url(#clip1_21_4106)">
<path fill-rule="evenodd" clip-rule="evenodd" d="M79.8885 451.074C76.5939 451.074 73.9201 453.748 73.9201 457.043C73.9201 460.337 76.5939 463.011 79.8885 463.011C76.5939 463.011 73.9201 465.685 73.9201 468.98C73.9201 472.274 76.5939 474.948 79.8885 474.948C76.5939 474.948 73.9201 477.622 73.9201 480.916C73.9201 484.211 76.5939 486.885 79.8885 486.885C83.183 486.885 85.8568 484.211 85.8568 480.916L85.8568 468.98C85.8568 472.274 88.5307 474.948 91.8252 474.948C95.1198 474.948 97.7936 472.274 97.7936 468.98C97.7936 465.685 95.1198 463.011 91.8252 463.011C95.1198 463.011 97.7936 460.337 97.7936 457.043C97.7936 453.748 95.1198 451.074 91.8252 451.074H79.8885ZM91.8252 463.011H85.8568L85.8568 468.98C85.8568 465.685 88.5307 463.011 91.8252 463.011Z" fill="#7B4AE2" fill-opacity="0.5"/>
</g>
<g filter="url(#filter3_f_21_4106)">
<circle cx="309.624" cy="305.148" r="255.148" fill="#7B4AE2" fill-opacity="0.2"/>
</g>
<g filter="url(#filter4_i_21_4106)">
<path fill-rule="evenodd" clip-rule="evenodd" d="M263.696 404.674C300.451 424.266 341.668 422.089 373.961 404.673V447.592L374.326 447.583V472.782H263.696V404.674Z" fill="#372315"/>
<path fill-rule="evenodd" clip-rule="evenodd" d="M263.695 440.435C300.45 460.028 341.668 457.851 373.961 440.435V467.805L398.794 467.186L399.102 467.198C399.102 533.168 241.386 543.044 241.386 467.098L242.002 467.071L263.695 467.181V440.435V440.435Z" fill="#372315"/>
<path fill-rule="evenodd" clip-rule="evenodd" d="M199.127 169.308C286.841 113.458 399.056 133.319 436.969 170.147C447.93 196.523 448.705 221.965 445.48 249.274C452.885 243.961 461.691 245.177 468.629 250.125C471.44 272.786 478.969 317.614 445.229 319.559C433.614 464.165 220.78 482.165 192.01 320.032C158.57 318.879 167.587 273.573 169.676 251.817C177.699 245.714 186.861 248.785 192.547 251.516L199.127 169.308V169.308Z" fill="#372315"/>
<path fill-rule="evenodd" clip-rule="evenodd" d="M186.099 230.548C186.56 231.814 185.062 233.08 180.571 235.381C171.275 240.024 170.46 240.99 170.437 248.263V248.614C170.437 258.394 171.934 260.925 178.382 261.847C184.947 262.767 189.094 264.262 190.246 266.104C190.705 266.909 191.167 270.592 191.167 274.389C191.167 282.558 193.7 294.066 196.81 300.049C205.562 317.079 228.364 325.709 256.003 322.487C269.593 320.761 277.539 318.115 286.176 312.361C299.075 303.731 305.063 292.685 305.984 275.31C306.676 264.723 306.676 264.723 310.131 263.572C314.622 261.962 325.794 261.962 330.4 263.572C333.969 264.838 333.969 264.838 333.969 273.008C333.969 282.443 336.388 293.72 339.612 300.05C348.365 317.079 371.167 325.709 398.692 322.487C412.396 320.762 420.342 318.115 428.98 312.362C441.878 303.732 447.867 292.34 449.018 274.504C449.824 262.767 449.249 263.343 461.917 261.732C468.365 260.926 469.863 258.394 469.863 248.499C469.863 240.674 468.596 239.179 457.886 234.576L451.436 231.814L441.417 228.708L434.047 227.097C430.016 226.292 424.834 225.6 422.645 225.485C420.342 225.485 414.585 223.414 408.827 220.538C399.267 215.82 398.807 215.705 387.521 215.705C374.623 215.705 365.524 218.352 358.153 224.105C355.966 225.831 351.359 228.017 348.134 228.822C344.794 229.629 338.576 231.815 334.315 233.656C323.144 238.374 317.386 238.143 303.106 232.39C296.888 229.859 291.013 227.787 290.208 227.787C289.4 227.787 286.752 226.177 284.334 224.221C276.733 218.236 268.211 215.705 255.082 215.705C243.911 215.705 243.221 215.935 233.317 220.653C226.637 223.875 221.454 225.485 218.345 225.485C215.811 225.6 210.283 226.292 206.137 227.212L186.099 230.548V230.548ZM278.23 245.392C292.048 249.88 296.309 255.978 296.425 271.397C296.54 279.567 296.08 282.214 293.892 286.701C286.292 302.235 264.64 310.981 238.958 309.024C219.266 307.414 209.131 301.891 203.719 289.693C200.264 281.754 199.803 262.767 203.027 256.898C206.022 251.375 211.781 247.578 221.223 245.047C228.594 243.091 232.625 242.86 251.051 243.091C266.943 243.435 273.854 244.011 278.23 245.392V245.392ZM421.032 245.392C434.853 249.88 439.113 255.978 439.229 271.397C439.344 279.567 438.883 282.214 436.695 286.701C429.094 302.235 407.443 310.981 381.761 309.024C362.069 307.414 351.934 301.891 346.521 289.693C343.066 281.754 342.606 262.767 345.831 256.898C348.825 251.375 354.583 247.578 364.026 245.047C371.397 243.091 375.427 242.86 393.853 243.091C409.746 243.435 416.656 244.011 421.032 245.392V245.392Z" fill="#523F32"/>
<path fill-rule="evenodd" clip-rule="evenodd" d="M289.285 56.832L282.03 61.5501L278.344 57.9827C272.586 52.3447 269.822 53.3804 265.446 62.7009C262.797 68.454 259.458 69.1448 253.7 65.3471C251.396 63.7365 248.517 62.3554 247.366 62.3554C244.832 62.3554 242.414 66.2676 241.377 71.4457C240.571 75.7033 237.808 79.6154 235.504 79.6154C234.698 79.6154 231.703 78.5798 228.825 77.3139C224.448 75.3579 223.066 75.2427 220.648 76.2783C217.884 77.5442 217.653 78.2344 217.653 85.8291C217.653 91.3526 216.847 95.6102 215.35 98.8322C213.162 103.665 213.047 103.78 207.634 103.78C198.651 103.78 194.39 108.267 198.766 113.216C201.07 115.632 199.572 118.163 195.082 119.199C186.789 121.27 184.371 126.563 188.863 132.201C191.972 136.229 191.857 136.804 186.905 139.106C181.722 141.637 180.917 144.514 184.256 148.081C186.789 150.843 186.789 150.958 185.407 166.147C184.026 180.876 184.486 221.955 186.099 226.213C186.56 227.478 185.062 228.744 180.571 231.046C171.127 235.763 170.437 236.684 170.437 244.279C170.437 254.059 171.934 256.591 178.383 257.511C184.947 258.432 189.093 259.927 190.245 261.769C190.705 262.574 191.166 266.256 191.166 270.054C191.166 278.224 193.7 289.73 196.809 295.714C205.562 312.744 228.364 321.374 256.004 318.153C269.593 316.426 277.539 313.78 286.176 308.027C299.075 299.396 305.063 288.349 305.985 270.974C306.676 260.388 306.676 260.388 310.131 259.238C314.622 257.626 325.793 257.626 330.399 259.238C333.97 260.504 333.97 260.504 333.97 268.673C333.97 278.109 336.388 289.386 339.613 295.714C348.365 312.745 371.167 321.374 398.692 318.153C412.396 316.427 420.342 313.78 428.98 308.027C441.878 299.397 447.867 288.005 449.018 270.17C449.824 258.432 449.249 259.008 461.917 257.397C468.366 256.591 469.863 254.06 469.863 244.164C469.863 236.34 468.596 234.844 457.886 230.241L451.437 227.479V215.972C451.321 196.296 448.558 182.373 443.72 177.885C442.108 176.389 438.538 174.088 435.659 172.707C431.168 170.52 430.247 170.405 428.865 171.901C427.483 173.282 427.828 174.548 431.283 181.452C435.544 189.967 439.344 204.351 440.611 216.778L441.417 224.373L434.047 222.762C430.016 221.956 424.834 221.266 422.645 221.151C420.342 221.151 414.584 219.08 408.826 216.203C399.267 211.485 398.807 211.37 387.521 211.37C374.622 211.37 365.524 214.017 358.154 219.77C355.966 221.496 351.359 223.682 348.135 224.488C344.795 225.293 338.576 227.48 334.315 229.321C323.144 234.039 317.386 233.809 303.105 228.055C296.887 225.524 291.013 223.452 290.207 223.452C289.401 223.452 286.752 221.841 284.334 219.885C276.733 213.902 268.211 211.37 255.082 211.37C243.911 211.37 243.22 211.6 233.316 216.318C226.636 219.54 221.454 221.151 218.345 221.151C215.811 221.266 210.283 221.956 206.138 222.877C194.391 225.409 195.312 226.904 196.233 207.573C196.924 191.003 199.112 176.965 201.646 172.132C204.525 166.723 227.327 155.101 249.9 147.507C277.885 138.187 309.324 134.619 344.795 137.036C375.198 138.992 383.26 141.523 416.888 159.589C428.634 165.918 439.575 170.981 442.108 171.326C446.255 171.901 446.6 171.671 447.866 168.219C450.631 160.279 448.442 140.257 443.836 131.167C440.381 124.494 440.151 121.962 442.108 115.058C443.49 110.225 443.49 109.189 441.763 106.658C440.151 104.241 438.999 103.781 434.393 103.781C431.398 103.896 426.792 104.356 424.143 104.817C419.421 105.737 419.306 105.737 419.882 102.746C422.185 91.4691 419.421 88.9373 408.25 91.8138C404.68 92.7343 401.34 93.31 401.11 92.9646C400.765 92.6198 401.11 89.1676 401.916 85.3705C403.298 79.1568 403.183 78.1212 401.571 76.3948C399.843 74.7841 398.807 74.7841 392.127 76.05C381.417 78.2364 377.386 77.2008 373.47 71.2167C369.44 65.3485 365.754 63.2772 361.954 64.7727C359.881 65.5781 357.693 65.2333 353.547 63.3924C349.17 61.5514 346.637 61.0909 342.722 61.6659C338.691 62.3568 336.503 61.8962 332.703 59.9401C328.787 57.984 326.599 57.6386 321.877 58.2136C316.81 58.7894 314.967 58.3288 309.094 55.4522C305.409 53.6113 301.033 52.1151 299.42 52C297.808 52 293.316 54.1863 289.286 56.8333L289.285 56.832V56.832ZM278.229 241.057C292.049 245.544 296.31 251.643 296.425 267.062C296.541 275.232 296.08 277.879 293.892 282.366C286.291 297.9 264.64 306.646 238.958 304.69C219.266 303.079 209.131 297.555 203.719 285.358C200.264 277.418 199.803 258.432 203.027 252.563C206.022 247.04 211.78 243.243 221.223 240.711C228.594 238.755 232.625 238.525 251.051 238.755C266.943 239.1 273.853 239.676 278.229 241.057V241.057ZM421.032 241.057C434.852 245.544 439.113 251.643 439.228 267.062C439.344 275.232 438.883 277.879 436.695 282.366C429.094 297.9 407.443 306.646 381.761 304.69C362.069 303.079 351.934 297.555 346.522 285.358C343.067 277.418 342.606 258.432 345.831 252.563C348.825 247.04 354.583 243.243 364.026 240.711C371.397 238.755 375.428 238.525 393.854 238.755C409.746 239.1 416.656 239.676 421.032 241.057V241.057Z" fill="#2C1B18"/>
<path fill-rule="evenodd" clip-rule="evenodd" d="M241.147 254.98C235.043 257.857 228.017 265.106 228.017 268.558C228.017 271.205 229.86 271.205 233.43 268.328C242.758 260.964 262.567 260.964 272.701 268.213C274.659 269.479 276.732 270.629 277.423 270.629C279.841 270.629 278.69 266.486 275.005 262.114C270.168 256.13 261.531 252.218 253.354 252.218C249.093 252.218 245.062 253.139 241.147 254.979V254.98V254.98Z" fill="#1A130F"/>
<path fill-rule="evenodd" clip-rule="evenodd" d="M374.737 254.98C368.633 257.857 361.608 265.106 361.608 268.558C361.608 271.205 363.451 271.205 367.021 268.328C376.349 260.964 396.157 260.964 406.292 268.213C408.249 269.479 410.322 270.629 411.014 270.629C413.432 270.629 412.28 266.486 408.595 262.114C403.758 256.13 395.121 252.218 386.944 252.218C382.683 252.218 378.653 253.139 374.737 254.979L374.737 254.98V254.98Z" fill="#1A130F"/>
<path fill-rule="evenodd" clip-rule="evenodd" d="M293.316 309.983C294.583 314.93 298.268 318.843 304.717 321.95C309.9 324.481 312.548 325.057 320.149 325.057C327.75 325.057 330.399 324.481 335.581 321.95C342.03 318.843 345.715 314.931 346.982 309.983L347.558 307.452H320.149H292.74L293.316 309.983V309.983Z" fill="#523F32"/>
<path fill-rule="evenodd" clip-rule="evenodd" d="M288.018 356.24C289.516 365.791 296.771 375.572 305.754 380.174C312.318 383.626 324.41 384.317 331.32 381.67C341.685 377.643 350.668 366.826 352.28 356.24H288.018V356.24Z" fill="#733223"/>
<path fill-rule="evenodd" clip-rule="evenodd" d="M287.034 332.254C285.28 332.891 280.975 334.962 277.467 336.954C273.959 338.865 269.973 340.937 268.618 341.494C265.828 342.609 257.617 342.927 254.986 342.051C253.471 341.573 253.152 341.732 253.152 343.245C253.152 345.715 258.335 350.335 263.995 353.044C271.329 356.549 280.895 355.832 292.854 350.814C297.47 349.454 304.147 345.812 309.515 343.963C321.343 339.785 327.385 342.183 338.056 346.751L347.383 350.814C359.342 355.832 368.908 356.549 376.243 353.044C381.982 350.335 387.324 345.477 386.926 343.405C386.766 342.609 386.048 342.131 385.411 342.29C384.773 342.45 381.823 342.529 378.794 342.529C374.01 342.449 372.575 342.051 366.836 339.104C351.29 330.98 353.522 331.617 342.042 331.617C332.874 331.617 331.04 331.935 325.939 333.767L320.118 335.838L314.378 333.767C307.363 331.298 292.455 330.501 287.034 332.254V332.254Z" fill="black" fill-opacity="0.301961"/>
<path d="M359.721 578.002L367.116 571.994C368.83 570.602 371.349 570.861 372.742 572.574C374.136 574.286 373.876 576.802 372.162 578.195L368.583 581.102L394.568 602.978C396.281 604.37 396.541 606.887 395.148 608.599C394.357 609.57 393.205 610.074 392.043 610.074C391.156 610.074 390.263 609.781 389.522 609.179L359.721 584.202C358.787 583.443 358.245 582.305 358.245 581.102C358.245 579.899 358.787 578.76 359.721 578.002V578.002Z" fill="#7B4AE2"/>
<path d="M392.56 541.293C394.683 541.31 396.391 543.043 396.374 545.165L396.044 606.263C396.027 608.384 394.291 610.091 392.168 610.074C391.63 610.07 391.12 609.955 390.656 609.752C389.291 609.154 388.341 607.786 388.354 606.201L388.685 545.104C388.702 542.982 390.437 541.276 392.56 541.293V541.293Z" fill="#7B4AE2"/>
<path d="M409.438 583.321L412.169 581.102L402.441 573.198C400.727 571.806 400.468 569.29 401.861 567.577C403.254 565.865 405.773 565.606 407.487 566.998L421.03 578.002C421.965 578.76 422.507 579.899 422.507 581.102C422.507 582.305 421.965 583.443 421.03 584.202L414.483 589.522C413.742 590.123 412.849 590.417 411.963 590.417C410.8 590.417 409.648 589.913 408.858 588.942C407.464 587.23 407.724 584.713 409.438 583.321V583.321Z" fill="#C83267"/>
<path fill-rule="evenodd" clip-rule="evenodd" d="M239.624 466.93C205.652 470.236 174.789 482.889 149.107 503.977C127.008 522.046 120.843 536.407 104.663 556.86C137.629 591.033 181.958 619.988 230.298 635.98C262.543 646.58 284.54 650 319.088 650C353.639 650 375.634 646.58 407.881 635.98C456.649 620.396 497.728 594.859 534.759 558.205C509.396 525.495 498.957 504.057 458.091 483.914C440.931 475.365 420.778 469.21 405.346 467.614L398.078 466.959L397.733 466.952L396.939 472.402C393.485 498.392 360.895 517.542 320.241 517.542C279.589 517.542 247.573 498.619 243.426 472.288C242.621 467.045 242.274 466.588 239.626 466.93H239.624V466.93Z" fill="#090E16"/>
<path fill-rule="evenodd" clip-rule="evenodd" d="M260.698 420.613L260.218 420.462C258.905 420.049 265.355 417.106 267.641 416.013C274.36 412.803 283.123 413.459 294.077 418.056C298.306 419.302 304.422 422.637 309.34 424.331C320.174 428.16 325.709 425.962 335.484 421.778L344.029 418.056C354.983 413.459 363.746 412.803 370.465 416.013C372.718 417.077 374.943 418.457 376.637 419.932L377.147 420.376C357.539 435.321 294.686 442.75 260.698 420.613V420.613Z" fill="black" fill-opacity="0.501961"/>
<path d="M386.489 560.392L390.339 557.264C391.231 556.539 392.542 556.675 393.267 557.566C393.993 558.457 393.858 559.768 392.965 560.492L391.103 562.006L404.628 573.396C405.521 574.12 405.656 575.431 404.93 576.322C404.519 576.828 403.919 577.09 403.314 577.09C402.853 577.09 402.388 576.938 402.002 576.624L386.489 563.62C386.003 563.225 385.721 562.632 385.721 562.006C385.721 561.38 386.003 560.787 386.489 560.392V560.392Z" fill="white"/>
<path d="M403.584 541.28C404.689 541.289 405.578 542.191 405.569 543.296L405.397 575.106C405.388 576.211 404.485 577.099 403.379 577.09C403.099 577.088 402.834 577.028 402.592 576.923C401.882 576.611 401.387 575.899 401.394 575.074L401.566 543.264C401.575 542.16 402.478 541.271 403.584 541.28V541.28Z" fill="white"/>
<path d="M412.369 563.161L413.791 562.006L408.727 557.891C407.835 557.167 407.7 555.856 408.425 554.965C409.15 554.073 410.461 553.938 411.353 554.663L418.404 560.392C418.89 560.787 419.172 561.38 419.172 562.006C419.172 562.632 418.89 563.225 418.404 563.62L414.996 566.39C414.609 566.703 414.145 566.856 413.684 566.856C413.078 566.856 412.478 566.594 412.067 566.088C411.342 565.196 411.477 563.886 412.369 563.161Z" fill="#7B4AE2"/>
</g>
<defs>
<filter id="filter0_d_21_4106" x="484.333" y="249.3" width="171.62" height="171.62" filterUnits="userSpaceOnUse" color-interpolation-filters="sRGB">
<feFlood flood-opacity="0" result="BackgroundImageFix"/>
<feColorMatrix in="SourceAlpha" type="matrix" values="0 0 0 0 0 0 0 0 0 0 0 0 0 0 0 0 0 0 127 0" result="hardAlpha"/>
<feOffset dy="4"/>
<feGaussianBlur stdDeviation="25"/>
<feComposite in2="hardAlpha" operator="out"/>
<feColorMatrix type="matrix" values="0 0 0 0 0 0 0 0 0 0 0 0 0 0 0 0 0 0 0.5 0"/>
<feBlend mode="normal" in2="BackgroundImageFix" result="effect1_dropShadow_21_4106"/>
<feBlend mode="normal" in="SourceGraphic" in2="effect1_dropShadow_21_4106" result="shape"/>
</filter>
<filter id="filter1_d_21_4106" x="0" y="157.984" width="171.62" height="171.62" filterUnits="userSpaceOnUse" color-interpolation-filters="sRGB">
<feFlood flood-opacity="0" result="BackgroundImageFix"/>
<feColorMatrix in="SourceAlpha" type="matrix" values="0 0 0 0 0 0 0 0 0 0 0 0 0 0 0 0 0 0 127 0" result="hardAlpha"/>
<feOffset dy="4"/>
<feGaussianBlur stdDeviation="25"/>
<feComposite in2="hardAlpha" operator="out"/>
<feColorMatrix type="matrix" values="0 0 0 0 0 0 0 0 0 0 0 0 0 0 0 0 0 0 0.5 0"/>
<feBlend mode="normal" in2="BackgroundImageFix" result="effect1_dropShadow_21_4106"/>
<feBlend mode="normal" in="SourceGraphic" in2="effect1_dropShadow_21_4106" result="shape"/>
</filter>
<filter id="filter2_d_21_4106" x="0" y="387.169" width="171.62" height="171.62" filterUnits="userSpaceOnUse" color-interpolation-filters="sRGB">
<feFlood flood-opacity="0" result="BackgroundImageFix"/>
<feColorMatrix in="SourceAlpha" type="matrix" values="0 0 0 0 0 0 0 0 0 0 0 0 0 0 0 0 0 0 127 0" result="hardAlpha"/>
<feOffset dy="4"/>
<feGaussianBlur stdDeviation="25"/>
<feComposite in2="hardAlpha" operator="out"/>
<feColorMatrix type="matrix" values="0 0 0 0 0 0 0 0 0 0 0 0 0 0 0 0 0 0 0.5 0"/>
<feBlend mode="normal" in2="BackgroundImageFix" result="effect1_dropShadow_21_4106"/>
<feBlend mode="normal" in="SourceGraphic" in2="effect1_dropShadow_21_4106" result="shape"/>
</filter>
<filter id="filter3_f_21_4106" x="4.47626" y="0" width="610.296" height="610.296" filterUnits="userSpaceOnUse" color-interpolation-filters="sRGB">
<feFlood flood-opacity="0" result="BackgroundImageFix"/>
<feBlend mode="normal" in="SourceGraphic" in2="BackgroundImageFix" result="shape"/>
<feGaussianBlur stdDeviation="25" result="effect1_foregroundBlur_21_4106"/>
</filter>
<filter id="filter4_i_21_4106" x="104.663" y="52" width="430.095" height="602" filterUnits="userSpaceOnUse" color-interpolation-filters="sRGB">
<feFlood flood-opacity="0" result="BackgroundImageFix"/>
<feBlend mode="normal" in="SourceGraphic" in2="BackgroundImageFix" result="shape"/>
<feColorMatrix in="SourceAlpha" type="matrix" values="0 0 0 0 0 0 0 0 0 0 0 0 0 0 0 0 0 0 127 0" result="hardAlpha"/>
<feOffset dy="4"/>
<feGaussianBlur stdDeviation="2"/>
<feComposite in2="hardAlpha" operator="arithmetic" k2="-1" k3="1"/>
<feColorMatrix type="matrix" values="0 0 0 0 0 0 0 0 0 0 0 0 0 0 0 0 0 0 0.25 0"/>
<feBlend mode="normal" in2="shape" result="effect1_innerShadow_21_4106"/>
</filter>
<clipPath id="clip0_21_4106">
<rect width="35.8102" height="35.8102" fill="white" transform="translate(552.238 313.205)"/>
</clipPath>
<clipPath id="clip1_21_4106">
<rect width="35.8102" height="35.8102" fill="white" transform="translate(67.9051 451.074)"/>
</clipPath>
</defs>
</svg>
